<svg data-cached="true" xmlns="http://www.w3.org/2000/svg" id="data" x="0" y="0" width="168" height="168" viewBox="0 0 288 288" preserveAspectRatio="xMinYMid meet"><path d="M0 0L12 0L12 12L24 12L24 24L12 24L12 48L24 48L24 72L36 72L36 84L24 84L24 96L36 96L36 84L48 84L48 72L36 72L36 48L48 48L48 60L60 60L60 84L72 84L72 108L60 108L60 96L48 96L48 132L36 132L36 108L24 108L24 120L12 120L12 132L36 132L36 144L24 144L24 156L12 156L12 192L24 192L24 216L12 216L12 228L24 228L24 216L48 216L48 228L36 228L36 240L12 240L12 276L48 276L48 264L24 264L24 252L36 252L36 240L48 240L48 228L60 228L60 240L72 240L72 264L60 264L60 276L84 276L84 264L96 264L96 252L108 252L108 276L120 276L120 240L156 240L156 252L144 252L144 264L132 264L132 276L168 276L168 240L192 240L192 264L204 264L204 276L228 276L228 264L216 264L216 216L240 216L240 252L264 252L264 264L240 264L240 276L264 276L264 264L276 264L276 276L288 276L288 288L0 288ZM24 0L36 0L36 12L24 12ZM48 0L60 0L60 24L48 24ZM72 0L84 0L84 12L96 12L96 0L108 0L108 24L96 24L96 36L84 36L84 24L72 24ZM120 0L132 0L132 24L120 24ZM144 0L156 0L156 24L168 24L168 36L144 36ZM168 0L180 0L180 12L192 12L192 24L216 24L216 36L228 36L228 60L216 60L216 48L204 48L204 60L192 60L192 84L180 84L180 108L192 108L192 120L180 120L180 132L192 132L192 120L204 120L204 108L192 108L192 96L204 96L204 84L240 84L240 120L228 120L228 132L216 132L216 144L204 144L204 168L192 168L192 156L168 156L168 132L156 132L156 156L132 156L132 132L108 132L108 120L120 120L120 84L108 84L108 72L120 72L120 60L144 60L144 84L132 84L132 120L144 120L144 108L156 108L156 120L168 120L168 108L156 108L156 60L180 60L180 48L192 48L192 36L180 36L180 24L168 24ZM192 0L204 0L204 12L192 12ZM216 0L228 0L228 12L240 12L240 0L252 0L252 12L264 12L264 0L276 0L276 12L288 12L288 24L252 24L252 36L240 36L240 24L216 24ZM36 24L48 24L48 36L36 36ZM60 24L72 24L72 36L60 36ZM108 24L120 24L120 36L132 36L132 48L120 48L120 60L108 60ZM168 36L180 36L180 48L168 48ZM276 36L288 36L288 48L276 48ZM60 48L72 48L72 60L60 60ZM264 48L276 48L276 60L288 60L288 72L264 72L264 84L288 84L288 96L276 96L276 108L288 108L288 120L276 120L276 132L288 132L288 144L276 144L276 156L252 156L252 144L264 144L264 108L252 108L252 72L240 72L240 60L264 60ZM72 72L96 72L96 84L108 84L108 108L96 108L96 96L84 96L84 84L72 84ZM72 108L96 108L96 120L84 120L84 144L72 144ZM96 132L108 132L108 144L120 144L120 156L132 156L132 168L120 168L120 216L132 216L132 204L156 204L156 216L144 216L144 228L108 228L108 216L96 216L96 228L108 228L108 240L96 240L96 252L84 252L84 240L72 240L72 228L84 228L84 216L60 216L60 204L84 204L84 192L72 192L72 180L96 180L96 192L108 192L108 180L96 180L96 156L84 156L84 144L96 144ZM36 144L48 144L48 192L36 192L36 168L24 168L24 156L36 156ZM228 144L240 144L240 156L228 156ZM60 156L72 156L72 168L60 168ZM216 156L228 156L228 168L216 168ZM276 156L288 156L288 168L276 168ZM156 168L168 168L168 180L156 180ZM180 168L192 168L192 180L204 180L204 168L216 168L216 180L228 180L228 204L216 204L216 192L204 192L204 204L192 204L192 192L180 192ZM144 180L156 180L156 192L144 192ZM240 180L252 180L252 204L264 204L264 216L240 216ZM276 180L288 180L288 192L276 192ZM48 192L60 192L60 204L48 204ZM156 192L168 192L168 204L156 204ZM264 192L276 192L276 204L264 204ZM168 204L192 204L192 216L180 216L180 228L168 228ZM276 204L288 204L288 216L276 216ZM192 216L204 216L204 240L192 240ZM252 228L264 228L264 240L252 240ZM276 228L288 228L288 240L276 240ZM264 240L276 240L276 252L264 252ZM276 252L288 252L288 264L276 264Z" fill="#000000" fill-rule="evenodd"/></svg>