<?xml version="1.0" encoding="UTF-8"?>
<svg id="Layer_2" data-name="Layer 2" xmlns="http://www.w3.org/2000/svg" viewBox="0 0 396 396">
  <defs>
    <style>
      .cls-1 {
        stroke-width: 0px;
      }
    </style>
  </defs>
  <g id="Layer_1-2" data-name="Layer 1">
    <rect class="cls-1" width="36" height="36"/>
    <rect class="cls-1" y="36" width="36" height="36"/>
    <rect class="cls-1" y="72" width="36" height="36"/>
    <rect class="cls-1" y="108" width="36" height="36"/>
    <rect class="cls-1" y="144" width="36" height="36"/>
    <rect class="cls-1" y="180" width="36" height="36"/>
    <rect class="cls-1" y="216" width="36" height="36"/>
    <rect class="cls-1" y="252" width="36" height="36"/>
    <rect class="cls-1" y="288" width="36" height="36"/>
    <rect class="cls-1" x="360" width="36" height="36"/>
    <rect class="cls-1" x="360" y="36" width="36" height="36"/>
    <rect class="cls-1" x="360" y="72" width="36" height="36"/>
    <rect class="cls-1" x="360" y="108" width="36" height="36"/>
    <rect class="cls-1" x="360" y="144" width="36" height="36"/>
    <rect class="cls-1" x="360" y="180" width="36" height="36"/>
    <rect class="cls-1" x="360" y="216" width="36" height="36"/>
    <rect class="cls-1" x="360" y="252" width="36" height="36"/>
    <rect class="cls-1" x="360" y="288" width="36" height="36"/>
    <rect class="cls-1" y="360" width="36" height="36"/>
    <rect class="cls-1" y="324" width="36" height="36"/>
    <rect class="cls-1" x="360" y="324" width="36" height="36"/>
    <rect class="cls-1" x="36" y="360" width="36" height="36"/>
    <rect class="cls-1" x="72" y="360" width="36" height="36"/>
    <rect class="cls-1" x="108" y="360" width="36" height="36"/>
    <rect class="cls-1" x="144" y="360" width="36" height="36"/>
    <rect class="cls-1" x="180" y="360" width="36" height="36"/>
    <rect class="cls-1" x="216" y="360" width="36" height="36"/>
    <rect class="cls-1" x="252" y="360" width="36" height="36"/>
    <rect class="cls-1" x="288" y="360" width="36" height="36"/>
    <rect class="cls-1" x="360" y="360" width="36" height="36"/>
    <rect class="cls-1" x="324" y="360" width="36" height="36"/>
    <rect class="cls-1" x="324" width="36" height="36"/>
    <rect class="cls-1" x="36" width="36" height="36"/>
    <rect class="cls-1" x="72" width="36" height="36"/>
    <rect class="cls-1" x="108" width="36" height="36"/>
    <rect class="cls-1" x="144" width="36" height="36"/>
    <rect class="cls-1" x="180" width="36" height="36"/>
    <rect class="cls-1" x="216" width="36" height="36"/>
    <rect class="cls-1" x="252" width="36" height="36"/>
    <rect class="cls-1" x="288" width="36" height="36"/>
    <g>
      <rect class="cls-1" x="108" y="108" width="36" height="36"/>
      <rect class="cls-1" x="180" y="144" width="36" height="36"/>
      <rect class="cls-1" x="216" y="180" width="36" height="36"/>
      <rect class="cls-1" x="180" y="180" width="36" height="36"/>
      <rect class="cls-1" x="144" y="144" width="36" height="36"/>
      <rect class="cls-1" x="144" y="108" width="36" height="36"/>
      <rect class="cls-1" x="216" y="216" width="36" height="36"/>
      <rect class="cls-1" x="288" y="252" width="36" height="36"/>
      <rect class="cls-1" x="252" y="216" width="36" height="36"/>
      <rect class="cls-1" x="252" y="252" width="36" height="36"/>
      <rect class="cls-1" x="288" y="288" width="36" height="36"/>
      <rect class="cls-1" x="108" y="72" width="36" height="36"/>
      <rect class="cls-1" x="72" y="72" width="36" height="36"/>
    </g>
  </g>
</svg>