<svg data-cached="true"
    xmlns="http://www.w3.org/2000/svg" id="data" x="0" y="0" width="670" height="214" viewBox="0 0 670 214" preserveAspectRatio="xMinYMid meet">
    <path d="M0 0L48 0L48 216L0 216ZM54 0L60 0L60 216L54 216ZM66 0L72 0L72 216L66 216ZM78 0L84 0L84 216L78 216ZM102 0L120 0L120 18L126 18L126 36L120 36L120 72L114 72L114 36L108 36L108 72L114 72L114 90L120 90L120 72L126 72L126 90L132 90L132 108L120 108L120 126L132 126L132 108L138 108L138 90L132 90L132 72L126 72L126 36L132 36L132 54L144 54L144 18L150 18L150 36L168 36L168 54L192 54L192 72L186 72L186 90L192 90L192 108L180 108L180 72L162 72L162 54L156 54L156 72L150 72L150 90L144 90L144 108L150 108L150 180L156 180L156 198L150 198L150 216L144 216L144 198L138 198L138 162L144 162L144 126L138 126L138 162L120 162L120 180L114 180L114 162L108 162L108 180L114 180L114 216L102 216ZM126 0L132 0L132 18L126 18ZM138 0L144 0L144 18L138 18ZM156 0L174 0L174 18L156 18ZM204 0L216 0L216 18L222 18L222 36L216 36L216 54L210 54L210 72L222 72L222 54L228 54L228 36L240 36L240 18L234 18L234 0L252 0L252 18L246 18L246 36L252 36L252 18L264 18L264 36L258 36L258 54L264 54L264 72L258 72L258 90L264 90L264 108L246 108L246 126L270 126L270 90L276 90L276 72L282 72L282 108L276 108L276 144L270 144L270 162L276 162L276 180L264 180L264 162L258 162L258 144L252 144L252 162L246 162L246 144L240 144L240 108L234 108L234 90L252 90L252 54L234 54L234 90L216 90L216 108L210 108L210 144L222 144L222 126L234 126L234 144L240 144L240 162L246 162L246 180L234 180L234 162L210 162L210 180L228 180L228 216L204 216ZM222 0L228 0L228 18L222 18ZM270 0L294 0L294 18L288 18L288 54L282 54L282 18L270 18ZM306 0L318 0L318 54L330 54L330 90L318 90L318 126L312 126L312 180L318 180L318 216L306 216ZM342 0L354 0L354 90L348 90L348 108L342 108L342 126L348 126L348 144L342 144L342 162L348 162L348 180L342 180L342 198L348 198L348 180L360 180L360 144L366 144L366 162L372 162L372 180L366 180L366 198L354 198L354 216L324 216L324 198L336 198L336 162L330 162L330 144L318 144L318 126L330 126L330 90L342 90L342 72L336 72L336 36L330 36L330 18L342 18ZM360 0L366 0L366 36L360 36ZM372 0L378 0L378 18L402 18L402 54L396 54L396 72L378 72L378 54L384 54L384 36L378 36L378 54L372 54ZM408 0L414 0L414 18L420 18L420 0L438 0L438 18L426 18L426 36L414 36L414 54L426 54L426 36L444 36L444 18L450 18L450 36L456 36L456 54L450 54L450 72L444 72L444 90L450 90L450 108L438 108L438 126L426 126L426 108L432 108L432 90L438 90L438 54L432 54L432 90L414 90L414 108L420 108L420 126L414 126L414 144L420 144L420 162L432 162L432 180L426 180L426 198L414 198L414 216L408 216ZM462 0L480 0L480 18L486 18L486 36L480 36L480 54L468 54L468 18L462 18ZM486 0L492 0L492 18L486 18ZM510 0L540 0L540 54L534 54L534 36L528 36L528 54L522 54L522 36L516 36L516 54L522 54L522 90L528 90L528 54L534 54L534 108L528 108L528 126L522 126L522 144L528 144L528 126L534 126L534 144L540 144L540 162L528 162L528 180L522 180L522 162L516 162L516 180L522 180L522 198L528 198L528 180L534 180L534 198L546 198L546 216L510 216ZM546 0L552 0L552 36L546 36ZM558 0L564 0L564 36L558 36ZM570 0L600 0L600 18L588 18L588 54L606 54L606 72L582 72L582 108L588 108L588 90L600 90L600 108L606 108L606 144L594 144L594 180L582 180L582 162L588 162L588 144L582 144L582 126L576 126L576 108L570 108L570 126L576 126L576 144L582 144L582 162L564 162L564 144L552 144L552 162L558 162L558 180L564 180L564 198L558 198L558 216L552 216L552 198L546 198L546 144L540 144L540 126L552 126L552 90L546 90L546 108L540 108L540 54L564 54L564 72L558 72L558 90L576 90L576 54L564 54L564 36L576 36L576 18L570 18ZM612 0L654 0L654 216L612 216ZM660 0L666 0L666 216L660 216ZM684 0L690 0L690 216L684 216ZM696 0L702 0L702 216L696 216ZM714 0L720 0L720 216L714 216ZM132 18L138 18L138 36L132 36ZM174 18L180 18L180 36L174 36ZM492 18L504 18L504 54L498 54L498 36L492 36ZM270 36L276 36L276 54L270 54ZM294 54L300 54L300 108L288 108L288 72L294 72ZM360 54L372 54L372 126L366 126L366 90L360 90ZM456 54L462 54L462 72L456 72ZM480 54L498 54L498 72L504 72L504 90L498 90L498 108L486 108L486 72L480 72ZM396 72L402 72L402 108L384 108L384 90L396 90ZM462 72L480 72L480 90L474 90L474 108L468 108L468 90L462 90ZM150 90L174 90L174 108L180 108L180 126L192 126L192 180L186 180L186 198L198 198L198 216L168 216L168 198L180 198L180 162L186 162L186 144L174 144L174 126L168 126L168 144L174 144L174 162L162 162L162 108L150 108ZM108 108L108 126L114 126L114 108ZM282 108L288 108L288 126L282 126ZM378 108L384 108L384 126L396 126L396 144L390 144L390 162L372 162L372 144L378 144ZM462 108L468 108L468 126L480 126L480 144L468 144L468 180L474 180L474 198L486 198L486 180L492 180L492 198L498 198L498 216L462 216L462 180L456 180L456 216L438 216L438 198L450 198L450 180L444 180L444 162L438 162L438 144L444 144L444 126L450 126L450 144L456 144L456 126L462 126ZM498 108L504 108L504 180L492 180L492 162L498 162ZM534 108L540 108L540 126L534 126ZM288 126L300 126L300 144L288 144ZM354 126L360 126L360 144L354 144ZM276 144L282 144L282 162L276 162ZM480 144L486 144L486 180L474 180L474 162L480 162ZM288 162L294 162L294 180L288 180ZM324 162L330 162L330 180L324 180ZM120 180L126 180L126 216L120 216ZM246 180L258 180L258 198L276 198L276 216L252 216L252 198L246 198ZM276 180L288 180L288 198L276 198ZM294 180L300 180L300 198L294 198ZM390 180L396 180L396 198L390 198ZM576 180L582 180L582 198L588 198L588 216L576 216ZM240 198L246 198L246 216L240 216ZM288 198L294 198L294 216L288 216ZM378 198L384 198L384 216L378 216ZM396 198L402 198L402 216L396 216ZM426 198L432 198L432 216L426 216ZM600 198L606 198L606 216L600 216Z" fill="#000000" fill-rule="evenodd"/>
</svg>